# xmcd
#
# Track frame offsets: 
#        150
#        13443
#        26382
#        41913
#        53708
#        70207
#        88022
#        103285
#        116890
#        129938
#        145591
#        161919
#        188139
#        203212
#        214797
#        225914
#        236034
#        250769
#        269892
#        280422
#        296279
#        313571
#        331742
#        344162
#
# Disc length: 4799 seconds
#
# Revision: 2
# Processed by: cddbd v1.5.2PL0 Copyright (c) Steve Scherf et al.
# Submitted via: ExactAudioCopy v1.3
#
DISCID=7412bd18
DTITLE=Various Artist - Akella Presents - Vol.36 - Rockin' Rollers Bl
DTITLE=ues  CD1
DYEAR=2013
DGENRE=Blues
TTITLE0=Wentus Blues Band - Facebook Blues
TTITLE1=Johnny Nicholas - Curb Your Dog
TTITLE2=John Campbelljohn - Let's Get Twisted
TTITLE3=The Pirates - Do The Dog
TTITLE4=Lefthand Freddy - Number One
TTITLE5=Ty Curtis Band - No Regrets
TTITLE6=The Mick Clarke Band - Twilight Cafe
TTITLE7=Perry Weber And The Devilles - International Man
TTITLE8=The Juke Joints - Magic Shoes
TTITLE9=Jim Suhler and Monkey Beat - Border Rock
TTITLE10=Danny Shirley - I Know A Little
TTITLE11=James Solberg - It's Alright
TTITLE12=Dave Steffen Band - The Boose Has A Bigger Bite
TTITLE13=Bluebirds - Justine
TTITLE14=Coyote Kings - Gimme More Honey
TTITLE15=Livin' Blues Xperience - Crocodile
TTITLE16=Rick Derringer - Blues Power
TTITLE17=David Gogo - Stay Away From My Home
TTITLE18=Ron Hacker - I Do Not Dance With Short Girls
TTITLE19=Steve Miller Band - Ooh Poo Pah Doo
TTITLE20=George Thorogood and The Destroyers - Sweet Little Lady
TTITLE21=Daddy Long Legs - Guilty
TTITLE22=Wild Willie and Big Deal - Don‘T You Lie To Me
TTITLE23=John Campbelljohn - Johnny Rock 'n' Roll
EXTD=
EXTT0=
EXTT1=
EXTT2=
EXTT3=
EXTT4=
EXTT5=
EXTT6=
EXTT7=
EXTT8=
EXTT9=
EXTT10=
EXTT11=
EXTT12=
EXTT13=
EXTT14=
EXTT15=
EXTT16=
EXTT17=
EXTT18=
EXTT19=
EXTT20=
EXTT21=
EXTT22=
EXTT23=
PLAYORDER=
